<svg xmlns="http://www.w3.org/2000/svg" xmlns:xlink="http://www.w3.org/1999/xlink" width="500" height="500" viewBox="0 0 500 500">
  <defs>
    <clipPath id="clip-Artboard_1">
      <rect width="500" height="500"/>
    </clipPath>
  </defs>
  <g id="Artboard_1" data-name="Artboard – 1" clip-path="url(#clip-Artboard_1)">
    <rect width="500" height="500" fill="#ececec"/>
    <g id="Rectangle_1" data-name="Rectangle 1" transform="translate(-6 440)" fill="#ff4b55" stroke="#707070" stroke-width="1">
      <rect width="500" height="60" stroke="none"/>
      <rect x="0.5" y="0.5" width="499" height="59" fill="none"/>
    </g>
    <g id="Rectangle_3" data-name="Rectangle 3" transform="translate(14 330)" fill="#ff4b55" stroke="#707070" stroke-width="1">
      <rect width="500" height="55" stroke="none"/>
      <rect x="0.5" y="0.5" width="499" height="54" fill="none"/>
    </g>
    <g id="Rectangle_4" data-name="Rectangle 4" transform="translate(0 220)" fill="#ff4b55" stroke="#707070" stroke-width="1">
      <rect width="500" height="55" stroke="none"/>
      <rect x="0.5" y="0.5" width="499" height="54" fill="none"/>
    </g>
    <g id="Rectangle_5" data-name="Rectangle 5" transform="translate(0 110)" fill="#ff4b55" stroke="#707070" stroke-width="1">
      <rect width="500" height="55" stroke="none"/>
      <rect x="0.5" y="0.5" width="499" height="54" fill="none"/>
    </g>
    <g id="Rectangle_6" data-name="Rectangle 6" fill="#ff4b55" stroke="#707070" stroke-width="1">
      <rect width="500" height="55" stroke="none"/>
      <rect x="0.5" y="0.5" width="499" height="54" fill="none"/>
    </g>
    <path id="Rectangle_7" data-name="Rectangle 7" d="M0,0H250a0,0,0,0,1,0,0V236a15,15,0,0,1-15,15H0a0,0,0,0,1,0,0V0A0,0,0,0,1,0,0Z" transform="translate(-2.325 0.204)" fill="#0189df"/>
    <g id="Ellipse_1" data-name="Ellipse 1" fill="none" stroke="#707070" stroke-width="110">
      <circle cx="250" cy="250" r="250" stroke="none"/>
      <circle cx="250" cy="250" r="305" fill="none"/>
    </g>
    <path id="Path_1" data-name="Path 1" d="M43.162-21.407h20.86l6.5-19.793,6.4,19.793h20.86L80.9-9.182l6.4,19.89L70.523-1.518,53.641,10.707l6.4-19.89Z" transform="translate(146.583 127.024)" fill="#f5f5f5"/>
    <path id="Path_3" data-name="Path 3" d="M43.162-21.407h20.86l6.5-19.793,6.4,19.793h20.86L80.9-9.182l6.4,19.89L70.523-1.518,53.641,10.707l6.4-19.89Z" transform="translate(92.403 178.494)" fill="#f5f5f5"/>
    <path id="Path_4" data-name="Path 4" d="M43.162-21.407h20.86l6.5-19.793,6.4,19.793h20.86L80.9-9.182l6.4,19.89L70.523-1.518,53.641,10.707l6.4-19.89Z" transform="translate(-15.957 178.494)" fill="#f5f5f5"/>
    <path id="Path_5" data-name="Path 5" d="M43.162-21.407h20.86l6.5-19.793,6.4,19.793h20.86L80.9-9.182l6.4,19.89L70.523-1.518,53.641,10.707l6.4-19.89Z" transform="translate(38.223 229.965)" fill="#f5f5f5"/>
    <path id="Path_7" data-name="Path 7" d="M43.162-21.407h20.86l6.5-19.793,6.4,19.793h20.86L80.9-9.182l6.4,19.89L70.523-1.518,53.641,10.707l6.4-19.89Z" transform="translate(38.223 127.024)" fill="#f5f5f5"/>
    <path id="Path_8" data-name="Path 8" d="M43.162-21.407h20.86l6.5-19.793,6.4,19.793h20.86L80.9-9.182l6.4,19.89L70.523-1.518,53.641,10.707l6.4-19.89Z" transform="translate(92.403 79.165)" fill="#f5f5f5"/>
  </g>
</svg>
